<mxfile host="app.diagrams.net" modified="2022-05-06T09:11:17.614Z" agent="5.0 (Windows)" etag="o5f9Z-nwtpFY2XAl4-5G" version="17.4.5" type="github">
  <diagram id="37qSxwbqytXXUZYhsqKF" name="Page-1">
    <mxGraphModel dx="1952" dy="1700" grid="1" gridSize="10" guides="1" tooltips="1" connect="1" arrows="1" fold="1" page="1" pageScale="1" pageWidth="850" pageHeight="1100" math="0" shadow="0">
      <root>
        <mxCell id="0" />
        <mxCell id="1" parent="0" />
        <mxCell id="gJkIxgqZncVY2Rm4iKjj-6" style="edgeStyle=orthogonalEdgeStyle;rounded=0;orthogonalLoop=1;jettySize=auto;html=1;" edge="1" parent="1" source="gJkIxgqZncVY2Rm4iKjj-1" target="gJkIxgqZncVY2Rm4iKjj-5">
          <mxGeometry relative="1" as="geometry" />
        </mxCell>
        <mxCell id="gJkIxgqZncVY2Rm4iKjj-19" style="edgeStyle=orthogonalEdgeStyle;rounded=0;orthogonalLoop=1;jettySize=auto;html=1;" edge="1" parent="1" source="gJkIxgqZncVY2Rm4iKjj-1" target="gJkIxgqZncVY2Rm4iKjj-17">
          <mxGeometry relative="1" as="geometry" />
        </mxCell>
        <mxCell id="gJkIxgqZncVY2Rm4iKjj-21" style="edgeStyle=orthogonalEdgeStyle;rounded=0;orthogonalLoop=1;jettySize=auto;html=1;" edge="1" parent="1" source="gJkIxgqZncVY2Rm4iKjj-1" target="gJkIxgqZncVY2Rm4iKjj-22">
          <mxGeometry relative="1" as="geometry">
            <mxPoint x="80" y="140" as="targetPoint" />
          </mxGeometry>
        </mxCell>
        <mxCell id="gJkIxgqZncVY2Rm4iKjj-31" style="edgeStyle=orthogonalEdgeStyle;rounded=0;orthogonalLoop=1;jettySize=auto;html=1;exitX=0.791;exitY=0.055;exitDx=0;exitDy=0;exitPerimeter=0;" edge="1" parent="1" source="gJkIxgqZncVY2Rm4iKjj-1" target="gJkIxgqZncVY2Rm4iKjj-30">
          <mxGeometry relative="1" as="geometry">
            <Array as="points">
              <mxPoint x="230" y="106" />
              <mxPoint x="230" y="60" />
              <mxPoint x="425" y="60" />
            </Array>
          </mxGeometry>
        </mxCell>
        <mxCell id="gJkIxgqZncVY2Rm4iKjj-34" style="edgeStyle=orthogonalEdgeStyle;rounded=0;orthogonalLoop=1;jettySize=auto;html=1;entryX=0;entryY=0.5;entryDx=0;entryDy=0;exitX=0.918;exitY=0.8;exitDx=0;exitDy=0;exitPerimeter=0;" edge="1" parent="1" source="gJkIxgqZncVY2Rm4iKjj-1" target="gJkIxgqZncVY2Rm4iKjj-32">
          <mxGeometry relative="1" as="geometry">
            <Array as="points">
              <mxPoint x="231" y="190" />
              <mxPoint x="285" y="190" />
              <mxPoint x="285" y="290" />
            </Array>
          </mxGeometry>
        </mxCell>
        <mxCell id="gJkIxgqZncVY2Rm4iKjj-38" style="edgeStyle=orthogonalEdgeStyle;rounded=0;orthogonalLoop=1;jettySize=auto;html=1;entryX=1;entryY=0.5;entryDx=0;entryDy=0;" edge="1" parent="1" source="gJkIxgqZncVY2Rm4iKjj-1" target="gJkIxgqZncVY2Rm4iKjj-37">
          <mxGeometry relative="1" as="geometry" />
        </mxCell>
        <mxCell id="gJkIxgqZncVY2Rm4iKjj-1" value="" style="html=1;verticalLabelPosition=bottom;align=center;labelBackgroundColor=#ffffff;verticalAlign=top;strokeWidth=2;strokeColor=#0080F0;shadow=0;dashed=0;shape=mxgraph.ios7.icons.user;" vertex="1" parent="1">
          <mxGeometry x="130" y="100" width="110" height="110" as="geometry" />
        </mxCell>
        <mxCell id="gJkIxgqZncVY2Rm4iKjj-2" value="User" style="text;html=1;align=center;verticalAlign=middle;resizable=0;points=[];autosize=1;strokeColor=none;fillColor=none;" vertex="1" parent="1">
          <mxGeometry x="160" y="220" width="40" height="20" as="geometry" />
        </mxCell>
        <mxCell id="gJkIxgqZncVY2Rm4iKjj-8" style="edgeStyle=orthogonalEdgeStyle;rounded=0;orthogonalLoop=1;jettySize=auto;html=1;entryX=0.636;entryY=1.018;entryDx=0;entryDy=0;entryPerimeter=0;" edge="1" parent="1" source="gJkIxgqZncVY2Rm4iKjj-4" target="gJkIxgqZncVY2Rm4iKjj-1">
          <mxGeometry relative="1" as="geometry" />
        </mxCell>
        <mxCell id="gJkIxgqZncVY2Rm4iKjj-10" style="edgeStyle=orthogonalEdgeStyle;rounded=0;orthogonalLoop=1;jettySize=auto;html=1;" edge="1" parent="1" source="gJkIxgqZncVY2Rm4iKjj-4" target="gJkIxgqZncVY2Rm4iKjj-9">
          <mxGeometry relative="1" as="geometry" />
        </mxCell>
        <mxCell id="gJkIxgqZncVY2Rm4iKjj-4" value="&lt;div&gt;Type&lt;/div&gt;&lt;div&gt;member&lt;/div&gt;&lt;div&gt;non member&lt;br&gt;&lt;/div&gt;" style="rounded=0;whiteSpace=wrap;html=1;" vertex="1" parent="1">
          <mxGeometry x="125" y="340" width="120" height="60" as="geometry" />
        </mxCell>
        <mxCell id="gJkIxgqZncVY2Rm4iKjj-5" value="Event" style="html=1;shape=mxgraph.infographic.ribbonSimple;notch1=20;notch2=0;align=center;verticalAlign=middle;fontSize=14;fontStyle=0;fillColor=#FFFFFF;flipH=0;spacingRight=0;spacingLeft=14;" vertex="1" parent="1">
          <mxGeometry x="480" y="60" width="170" height="40" as="geometry" />
        </mxCell>
        <mxCell id="gJkIxgqZncVY2Rm4iKjj-15" style="edgeStyle=orthogonalEdgeStyle;rounded=0;orthogonalLoop=1;jettySize=auto;html=1;exitX=0.963;exitY=0.613;exitDx=0;exitDy=0;exitPerimeter=0;" edge="1" parent="1" source="gJkIxgqZncVY2Rm4iKjj-9" target="gJkIxgqZncVY2Rm4iKjj-13">
          <mxGeometry relative="1" as="geometry">
            <mxPoint x="260" y="490" as="sourcePoint" />
          </mxGeometry>
        </mxCell>
        <mxCell id="gJkIxgqZncVY2Rm4iKjj-9" value="if member" style="rhombus;whiteSpace=wrap;html=1;" vertex="1" parent="1">
          <mxGeometry x="70" y="450" width="80" height="80" as="geometry" />
        </mxCell>
        <mxCell id="gJkIxgqZncVY2Rm4iKjj-13" value="&lt;div&gt;can be member of division&lt;/div&gt;&lt;div&gt;Can be division head&lt;br&gt;&lt;/div&gt;" style="rounded=0;whiteSpace=wrap;html=1;" vertex="1" parent="1">
          <mxGeometry x="270" y="480" width="120" height="60" as="geometry" />
        </mxCell>
        <mxCell id="gJkIxgqZncVY2Rm4iKjj-14" value="&lt;div&gt;View Event&lt;/div&gt;&lt;div&gt;Register for event&lt;br&gt;&lt;/div&gt;" style="text;html=1;align=center;verticalAlign=middle;resizable=0;points=[];autosize=1;strokeColor=none;fillColor=none;" vertex="1" parent="1">
          <mxGeometry x="245" y="120" width="110" height="30" as="geometry" />
        </mxCell>
        <mxCell id="gJkIxgqZncVY2Rm4iKjj-17" value="" style="dashed=0;outlineConnect=0;html=1;align=center;labelPosition=center;verticalLabelPosition=bottom;verticalAlign=top;shape=mxgraph.webicons.feed;fillColor=#FFAC75;gradientColor=#FF6600" vertex="1" parent="1">
          <mxGeometry x="200" y="-80" width="60" height="52.4" as="geometry" />
        </mxCell>
        <mxCell id="gJkIxgqZncVY2Rm4iKjj-18" value="feed" style="text;html=1;align=center;verticalAlign=middle;resizable=0;points=[];autosize=1;strokeColor=none;fillColor=none;" vertex="1" parent="1">
          <mxGeometry x="210" y="-20" width="40" height="20" as="geometry" />
        </mxCell>
        <mxCell id="gJkIxgqZncVY2Rm4iKjj-20" value="&lt;div&gt;can subscribe&lt;/div&gt;&lt;div&gt;view&lt;br&gt;&lt;/div&gt;" style="text;html=1;align=center;verticalAlign=middle;resizable=0;points=[];autosize=1;strokeColor=none;fillColor=none;rotation=0;" vertex="1" parent="1">
          <mxGeometry x="120" y="30" width="90" height="30" as="geometry" />
        </mxCell>
        <mxCell id="gJkIxgqZncVY2Rm4iKjj-23" style="edgeStyle=orthogonalEdgeStyle;rounded=0;orthogonalLoop=1;jettySize=auto;html=1;" edge="1" parent="1" source="gJkIxgqZncVY2Rm4iKjj-22" target="gJkIxgqZncVY2Rm4iKjj-17">
          <mxGeometry relative="1" as="geometry">
            <Array as="points">
              <mxPoint y="-54" />
            </Array>
          </mxGeometry>
        </mxCell>
        <mxCell id="gJkIxgqZncVY2Rm4iKjj-22" value="if PR" style="rhombus;whiteSpace=wrap;html=1;" vertex="1" parent="1">
          <mxGeometry x="-50" y="70" width="80" height="80" as="geometry" />
        </mxCell>
        <mxCell id="gJkIxgqZncVY2Rm4iKjj-24" value="post " style="text;html=1;align=center;verticalAlign=middle;resizable=0;points=[];autosize=1;strokeColor=none;fillColor=none;" vertex="1" parent="1">
          <mxGeometry y="-10" width="40" height="20" as="geometry" />
        </mxCell>
        <mxCell id="gJkIxgqZncVY2Rm4iKjj-25" value="&lt;h1&gt;&lt;font face=&quot;Comic Sans MS&quot;&gt;SImple usecase&lt;/font&gt;&lt;/h1&gt;" style="text;html=1;align=center;verticalAlign=middle;resizable=0;points=[];autosize=1;strokeColor=none;fillColor=none;" vertex="1" parent="1">
          <mxGeometry x="150" y="-145" width="200" height="50" as="geometry" />
        </mxCell>
        <mxCell id="gJkIxgqZncVY2Rm4iKjj-30" value="Register/sinup" style="rounded=0;whiteSpace=wrap;html=1;" vertex="1" parent="1">
          <mxGeometry x="365" y="-90" width="120" height="60" as="geometry" />
        </mxCell>
        <mxCell id="gJkIxgqZncVY2Rm4iKjj-36" style="edgeStyle=orthogonalEdgeStyle;rounded=0;orthogonalLoop=1;jettySize=auto;html=1;entryX=0;entryY=0.5;entryDx=0;entryDy=0;" edge="1" parent="1" source="gJkIxgqZncVY2Rm4iKjj-32" target="gJkIxgqZncVY2Rm4iKjj-35">
          <mxGeometry relative="1" as="geometry" />
        </mxCell>
        <mxCell id="gJkIxgqZncVY2Rm4iKjj-32" value="if head" style="rhombus;whiteSpace=wrap;html=1;" vertex="1" parent="1">
          <mxGeometry x="330" y="250" width="80" height="80" as="geometry" />
        </mxCell>
        <mxCell id="gJkIxgqZncVY2Rm4iKjj-35" value="&lt;div&gt;can change user type&lt;/div&gt;&lt;div&gt;can view users[specific type]&lt;br&gt;&lt;/div&gt;" style="rounded=0;whiteSpace=wrap;html=1;" vertex="1" parent="1">
          <mxGeometry x="450" y="210" width="120" height="60" as="geometry" />
        </mxCell>
        <mxCell id="gJkIxgqZncVY2Rm4iKjj-40" style="edgeStyle=orthogonalEdgeStyle;rounded=0;orthogonalLoop=1;jettySize=auto;html=1;entryX=0.25;entryY=0;entryDx=0;entryDy=0;" edge="1" parent="1" source="gJkIxgqZncVY2Rm4iKjj-37" target="gJkIxgqZncVY2Rm4iKjj-39">
          <mxGeometry relative="1" as="geometry" />
        </mxCell>
        <mxCell id="gJkIxgqZncVY2Rm4iKjj-37" value="if Super user[president]" style="rhombus;whiteSpace=wrap;html=1;" vertex="1" parent="1">
          <mxGeometry x="-10" y="200" width="80" height="80" as="geometry" />
        </mxCell>
        <mxCell id="gJkIxgqZncVY2Rm4iKjj-39" value="&lt;div&gt;can crud type, group&lt;br&gt;&lt;/div&gt;&lt;div&gt;&lt;br&gt;&lt;/div&gt;" style="rounded=0;whiteSpace=wrap;html=1;" vertex="1" parent="1">
          <mxGeometry x="-140" y="300" width="120" height="60" as="geometry" />
        </mxCell>
        <mxCell id="gJkIxgqZncVY2Rm4iKjj-41" value="&lt;h1&gt;User Model&lt;/h1&gt;" style="text;html=1;align=center;verticalAlign=middle;resizable=0;points=[];autosize=1;strokeColor=none;fillColor=none;fontFamily=Comic Sans MS;" vertex="1" parent="1">
          <mxGeometry x="125" y="615" width="150" height="50" as="geometry" />
        </mxCell>
        <mxCell id="gJkIxgqZncVY2Rm4iKjj-44" value="User" style="swimlane;fontStyle=0;childLayout=stackLayout;horizontal=1;startSize=26;fillColor=none;horizontalStack=0;resizeParent=1;resizeParentMax=0;resizeLast=0;collapsible=1;marginBottom=0;" vertex="1" parent="1">
          <mxGeometry x="130" y="690" width="140" height="416" as="geometry" />
        </mxCell>
        <mxCell id="gJkIxgqZncVY2Rm4iKjj-45" value="username" style="text;strokeColor=none;fillColor=none;align=left;verticalAlign=top;spacingLeft=4;spacingRight=4;overflow=hidden;rotatable=0;points=[[0,0.5],[1,0.5]];portConstraint=eastwest;" vertex="1" parent="gJkIxgqZncVY2Rm4iKjj-44">
          <mxGeometry y="26" width="140" height="26" as="geometry" />
        </mxCell>
        <mxCell id="gJkIxgqZncVY2Rm4iKjj-46" value="id" style="text;strokeColor=none;fillColor=none;align=left;verticalAlign=top;spacingLeft=4;spacingRight=4;overflow=hidden;rotatable=0;points=[[0,0.5],[1,0.5]];portConstraint=eastwest;" vertex="1" parent="gJkIxgqZncVY2Rm4iKjj-44">
          <mxGeometry y="52" width="140" height="26" as="geometry" />
        </mxCell>
        <mxCell id="gJkIxgqZncVY2Rm4iKjj-47" value="email" style="text;strokeColor=none;fillColor=none;align=left;verticalAlign=top;spacingLeft=4;spacingRight=4;overflow=hidden;rotatable=0;points=[[0,0.5],[1,0.5]];portConstraint=eastwest;" vertex="1" parent="gJkIxgqZncVY2Rm4iKjj-44">
          <mxGeometry y="78" width="140" height="26" as="geometry" />
        </mxCell>
        <mxCell id="gJkIxgqZncVY2Rm4iKjj-49" value="first name" style="text;strokeColor=none;fillColor=none;align=left;verticalAlign=top;spacingLeft=4;spacingRight=4;overflow=hidden;rotatable=0;points=[[0,0.5],[1,0.5]];portConstraint=eastwest;" vertex="1" parent="gJkIxgqZncVY2Rm4iKjj-44">
          <mxGeometry y="104" width="140" height="26" as="geometry" />
        </mxCell>
        <mxCell id="gJkIxgqZncVY2Rm4iKjj-50" value="last name" style="text;strokeColor=none;fillColor=none;align=left;verticalAlign=top;spacingLeft=4;spacingRight=4;overflow=hidden;rotatable=0;points=[[0,0.5],[1,0.5]];portConstraint=eastwest;" vertex="1" parent="gJkIxgqZncVY2Rm4iKjj-44">
          <mxGeometry y="130" width="140" height="26" as="geometry" />
        </mxCell>
        <mxCell id="gJkIxgqZncVY2Rm4iKjj-51" value="telegram username" style="text;strokeColor=none;fillColor=none;align=left;verticalAlign=top;spacingLeft=4;spacingRight=4;overflow=hidden;rotatable=0;points=[[0,0.5],[1,0.5]];portConstraint=eastwest;" vertex="1" parent="gJkIxgqZncVY2Rm4iKjj-44">
          <mxGeometry y="156" width="140" height="26" as="geometry" />
        </mxCell>
        <mxCell id="gJkIxgqZncVY2Rm4iKjj-52" value="sex" style="text;strokeColor=none;fillColor=none;align=left;verticalAlign=top;spacingLeft=4;spacingRight=4;overflow=hidden;rotatable=0;points=[[0,0.5],[1,0.5]];portConstraint=eastwest;" vertex="1" parent="gJkIxgqZncVY2Rm4iKjj-44">
          <mxGeometry y="182" width="140" height="26" as="geometry" />
        </mxCell>
        <mxCell id="gJkIxgqZncVY2Rm4iKjj-53" value="profile picture" style="text;strokeColor=none;fillColor=none;align=left;verticalAlign=top;spacingLeft=4;spacingRight=4;overflow=hidden;rotatable=0;points=[[0,0.5],[1,0.5]];portConstraint=eastwest;" vertex="1" parent="gJkIxgqZncVY2Rm4iKjj-44">
          <mxGeometry y="208" width="140" height="26" as="geometry" />
        </mxCell>
        <mxCell id="gJkIxgqZncVY2Rm4iKjj-54" value="phone" style="text;strokeColor=none;fillColor=none;align=left;verticalAlign=top;spacingLeft=4;spacingRight=4;overflow=hidden;rotatable=0;points=[[0,0.5],[1,0.5]];portConstraint=eastwest;" vertex="1" parent="gJkIxgqZncVY2Rm4iKjj-44">
          <mxGeometry y="234" width="140" height="26" as="geometry" />
        </mxCell>
        <mxCell id="gJkIxgqZncVY2Rm4iKjj-55" value="type" style="text;strokeColor=none;fillColor=none;align=left;verticalAlign=top;spacingLeft=4;spacingRight=4;overflow=hidden;rotatable=0;points=[[0,0.5],[1,0.5]];portConstraint=eastwest;" vertex="1" parent="gJkIxgqZncVY2Rm4iKjj-44">
          <mxGeometry y="260" width="140" height="26" as="geometry" />
        </mxCell>
        <mxCell id="gJkIxgqZncVY2Rm4iKjj-56" value="authority" style="text;strokeColor=none;fillColor=none;align=left;verticalAlign=top;spacingLeft=4;spacingRight=4;overflow=hidden;rotatable=0;points=[[0,0.5],[1,0.5]];portConstraint=eastwest;" vertex="1" parent="gJkIxgqZncVY2Rm4iKjj-44">
          <mxGeometry y="286" width="140" height="26" as="geometry" />
        </mxCell>
        <mxCell id="gJkIxgqZncVY2Rm4iKjj-61" value="subscription " style="text;strokeColor=none;fillColor=none;align=left;verticalAlign=top;spacingLeft=4;spacingRight=4;overflow=hidden;rotatable=0;points=[[0,0.5],[1,0.5]];portConstraint=eastwest;" vertex="1" parent="gJkIxgqZncVY2Rm4iKjj-44">
          <mxGeometry y="312" width="140" height="26" as="geometry" />
        </mxCell>
        <mxCell id="gJkIxgqZncVY2Rm4iKjj-57" value="created_at" style="text;strokeColor=none;fillColor=none;align=left;verticalAlign=top;spacingLeft=4;spacingRight=4;overflow=hidden;rotatable=0;points=[[0,0.5],[1,0.5]];portConstraint=eastwest;" vertex="1" parent="gJkIxgqZncVY2Rm4iKjj-44">
          <mxGeometry y="338" width="140" height="26" as="geometry" />
        </mxCell>
        <mxCell id="gJkIxgqZncVY2Rm4iKjj-62" value="upadated_at" style="text;strokeColor=none;fillColor=none;align=left;verticalAlign=top;spacingLeft=4;spacingRight=4;overflow=hidden;rotatable=0;points=[[0,0.5],[1,0.5]];portConstraint=eastwest;" vertex="1" parent="gJkIxgqZncVY2Rm4iKjj-44">
          <mxGeometry y="364" width="140" height="26" as="geometry" />
        </mxCell>
        <mxCell id="gJkIxgqZncVY2Rm4iKjj-63" value="is_active" style="text;strokeColor=none;fillColor=none;align=left;verticalAlign=top;spacingLeft=4;spacingRight=4;overflow=hidden;rotatable=0;points=[[0,0.5],[1,0.5]];portConstraint=eastwest;" vertex="1" parent="gJkIxgqZncVY2Rm4iKjj-44">
          <mxGeometry y="390" width="140" height="26" as="geometry" />
        </mxCell>
        <mxCell id="gJkIxgqZncVY2Rm4iKjj-65" value="Authority" style="swimlane;fontStyle=0;childLayout=stackLayout;horizontal=1;startSize=26;fillColor=none;horizontalStack=0;resizeParent=1;resizeParentMax=0;resizeLast=0;collapsible=1;marginBottom=0;fontFamily=Comic Sans MS;" vertex="1" parent="1">
          <mxGeometry x="440" y="1020" width="140" height="104" as="geometry" />
        </mxCell>
        <mxCell id="gJkIxgqZncVY2Rm4iKjj-66" value="position" style="text;strokeColor=none;fillColor=none;align=left;verticalAlign=top;spacingLeft=4;spacingRight=4;overflow=hidden;rotatable=0;points=[[0,0.5],[1,0.5]];portConstraint=eastwest;fontFamily=Comic Sans MS;" vertex="1" parent="gJkIxgqZncVY2Rm4iKjj-65">
          <mxGeometry y="26" width="140" height="26" as="geometry" />
        </mxCell>
        <mxCell id="gJkIxgqZncVY2Rm4iKjj-67" value="description" style="text;strokeColor=none;fillColor=none;align=left;verticalAlign=top;spacingLeft=4;spacingRight=4;overflow=hidden;rotatable=0;points=[[0,0.5],[1,0.5]];portConstraint=eastwest;fontFamily=Comic Sans MS;" vertex="1" parent="gJkIxgqZncVY2Rm4iKjj-65">
          <mxGeometry y="52" width="140" height="26" as="geometry" />
        </mxCell>
        <mxCell id="gJkIxgqZncVY2Rm4iKjj-68" value="type" style="text;strokeColor=none;fillColor=none;align=left;verticalAlign=top;spacingLeft=4;spacingRight=4;overflow=hidden;rotatable=0;points=[[0,0.5],[1,0.5]];portConstraint=eastwest;fontFamily=Comic Sans MS;" vertex="1" parent="gJkIxgqZncVY2Rm4iKjj-65">
          <mxGeometry y="78" width="140" height="26" as="geometry" />
        </mxCell>
        <mxCell id="gJkIxgqZncVY2Rm4iKjj-69" value="User Type" style="swimlane;fontStyle=0;childLayout=stackLayout;horizontal=1;startSize=26;fillColor=none;horizontalStack=0;resizeParent=1;resizeParentMax=0;resizeLast=0;collapsible=1;marginBottom=0;fontFamily=Comic Sans MS;" vertex="1" parent="1">
          <mxGeometry x="410" y="700" width="140" height="104" as="geometry" />
        </mxCell>
        <mxCell id="gJkIxgqZncVY2Rm4iKjj-70" value="name" style="text;strokeColor=none;fillColor=none;align=left;verticalAlign=top;spacingLeft=4;spacingRight=4;overflow=hidden;rotatable=0;points=[[0,0.5],[1,0.5]];portConstraint=eastwest;fontFamily=Comic Sans MS;" vertex="1" parent="gJkIxgqZncVY2Rm4iKjj-69">
          <mxGeometry y="26" width="140" height="26" as="geometry" />
        </mxCell>
        <mxCell id="gJkIxgqZncVY2Rm4iKjj-71" value="description" style="text;strokeColor=none;fillColor=none;align=left;verticalAlign=top;spacingLeft=4;spacingRight=4;overflow=hidden;rotatable=0;points=[[0,0.5],[1,0.5]];portConstraint=eastwest;fontFamily=Comic Sans MS;" vertex="1" parent="gJkIxgqZncVY2Rm4iKjj-69">
          <mxGeometry y="52" width="140" height="26" as="geometry" />
        </mxCell>
        <mxCell id="gJkIxgqZncVY2Rm4iKjj-76" value="vaccany" style="text;strokeColor=none;fillColor=none;align=left;verticalAlign=top;spacingLeft=4;spacingRight=4;overflow=hidden;rotatable=0;points=[[0,0.5],[1,0.5]];portConstraint=eastwest;fontFamily=Comic Sans MS;" vertex="1" parent="gJkIxgqZncVY2Rm4iKjj-69">
          <mxGeometry y="78" width="140" height="26" as="geometry" />
        </mxCell>
        <mxCell id="gJkIxgqZncVY2Rm4iKjj-74" style="edgeStyle=orthogonalEdgeStyle;rounded=0;orthogonalLoop=1;jettySize=auto;html=1;fontFamily=Comic Sans MS;exitX=0.5;exitY=1;exitDx=0;exitDy=0;" edge="1" parent="1" source="gJkIxgqZncVY2Rm4iKjj-69">
          <mxGeometry relative="1" as="geometry">
            <mxPoint x="460" y="820" as="sourcePoint" />
            <mxPoint x="270" y="960" as="targetPoint" />
            <Array as="points">
              <mxPoint x="480" y="979" />
              <mxPoint x="320" y="979" />
              <mxPoint x="320" y="960" />
            </Array>
          </mxGeometry>
        </mxCell>
        <mxCell id="gJkIxgqZncVY2Rm4iKjj-78" style="edgeStyle=orthogonalEdgeStyle;rounded=0;orthogonalLoop=1;jettySize=auto;html=1;entryX=1;entryY=0.5;entryDx=0;entryDy=0;fontFamily=Comic Sans MS;" edge="1" parent="1" source="gJkIxgqZncVY2Rm4iKjj-67" target="gJkIxgqZncVY2Rm4iKjj-56">
          <mxGeometry relative="1" as="geometry" />
        </mxCell>
        <mxCell id="gJkIxgqZncVY2Rm4iKjj-110" style="edgeStyle=orthogonalEdgeStyle;rounded=0;orthogonalLoop=1;jettySize=auto;html=1;entryX=1;entryY=0.5;entryDx=0;entryDy=0;fontFamily=Comic Sans MS;" edge="1" parent="1" source="gJkIxgqZncVY2Rm4iKjj-82" target="gJkIxgqZncVY2Rm4iKjj-99">
          <mxGeometry relative="1" as="geometry" />
        </mxCell>
        <mxCell id="gJkIxgqZncVY2Rm4iKjj-82" value="Subscription" style="swimlane;fontStyle=0;childLayout=stackLayout;horizontal=1;startSize=26;fillColor=none;horizontalStack=0;resizeParent=1;resizeParentMax=0;resizeLast=0;collapsible=1;marginBottom=0;fontFamily=Comic Sans MS;" vertex="1" parent="1">
          <mxGeometry x="-100" y="860" width="140" height="104" as="geometry" />
        </mxCell>
        <mxCell id="gJkIxgqZncVY2Rm4iKjj-83" value="feed_type" style="text;strokeColor=none;fillColor=none;align=left;verticalAlign=top;spacingLeft=4;spacingRight=4;overflow=hidden;rotatable=0;points=[[0,0.5],[1,0.5]];portConstraint=eastwest;fontFamily=Comic Sans MS;" vertex="1" parent="gJkIxgqZncVY2Rm4iKjj-82">
          <mxGeometry y="26" width="140" height="26" as="geometry" />
        </mxCell>
        <mxCell id="gJkIxgqZncVY2Rm4iKjj-84" value="user" style="text;strokeColor=none;fillColor=none;align=left;verticalAlign=top;spacingLeft=4;spacingRight=4;overflow=hidden;rotatable=0;points=[[0,0.5],[1,0.5]];portConstraint=eastwest;fontFamily=Comic Sans MS;" vertex="1" parent="gJkIxgqZncVY2Rm4iKjj-82">
          <mxGeometry y="52" width="140" height="26" as="geometry" />
        </mxCell>
        <mxCell id="gJkIxgqZncVY2Rm4iKjj-85" value="vaccany" style="text;strokeColor=none;fillColor=none;align=left;verticalAlign=top;spacingLeft=4;spacingRight=4;overflow=hidden;rotatable=0;points=[[0,0.5],[1,0.5]];portConstraint=eastwest;fontFamily=Comic Sans MS;" vertex="1" parent="gJkIxgqZncVY2Rm4iKjj-82">
          <mxGeometry y="78" width="140" height="26" as="geometry" />
        </mxCell>
        <mxCell id="gJkIxgqZncVY2Rm4iKjj-86" value="Feed" style="swimlane;fontStyle=0;childLayout=stackLayout;horizontal=1;startSize=26;fillColor=none;horizontalStack=0;resizeParent=1;resizeParentMax=0;resizeLast=0;collapsible=1;marginBottom=0;fontFamily=Comic Sans MS;" vertex="1" parent="1">
          <mxGeometry x="-310" y="840" width="140" height="208" as="geometry" />
        </mxCell>
        <mxCell id="gJkIxgqZncVY2Rm4iKjj-87" value="title" style="text;strokeColor=none;fillColor=none;align=left;verticalAlign=top;spacingLeft=4;spacingRight=4;overflow=hidden;rotatable=0;points=[[0,0.5],[1,0.5]];portConstraint=eastwest;fontFamily=Comic Sans MS;" vertex="1" parent="gJkIxgqZncVY2Rm4iKjj-86">
          <mxGeometry y="26" width="140" height="26" as="geometry" />
        </mxCell>
        <mxCell id="gJkIxgqZncVY2Rm4iKjj-88" value="body" style="text;strokeColor=none;fillColor=none;align=left;verticalAlign=top;spacingLeft=4;spacingRight=4;overflow=hidden;rotatable=0;points=[[0,0.5],[1,0.5]];portConstraint=eastwest;fontFamily=Comic Sans MS;" vertex="1" parent="gJkIxgqZncVY2Rm4iKjj-86">
          <mxGeometry y="52" width="140" height="26" as="geometry" />
        </mxCell>
        <mxCell id="gJkIxgqZncVY2Rm4iKjj-89" value="image" style="text;strokeColor=none;fillColor=none;align=left;verticalAlign=top;spacingLeft=4;spacingRight=4;overflow=hidden;rotatable=0;points=[[0,0.5],[1,0.5]];portConstraint=eastwest;fontFamily=Comic Sans MS;" vertex="1" parent="gJkIxgqZncVY2Rm4iKjj-86">
          <mxGeometry y="78" width="140" height="26" as="geometry" />
        </mxCell>
        <mxCell id="gJkIxgqZncVY2Rm4iKjj-91" value="type" style="text;strokeColor=none;fillColor=none;align=left;verticalAlign=top;spacingLeft=4;spacingRight=4;overflow=hidden;rotatable=0;points=[[0,0.5],[1,0.5]];portConstraint=eastwest;fontFamily=Comic Sans MS;" vertex="1" parent="gJkIxgqZncVY2Rm4iKjj-86">
          <mxGeometry y="104" width="140" height="26" as="geometry" />
        </mxCell>
        <mxCell id="gJkIxgqZncVY2Rm4iKjj-92" value="created_at" style="text;strokeColor=none;fillColor=none;align=left;verticalAlign=top;spacingLeft=4;spacingRight=4;overflow=hidden;rotatable=0;points=[[0,0.5],[1,0.5]];portConstraint=eastwest;fontFamily=Comic Sans MS;" vertex="1" parent="gJkIxgqZncVY2Rm4iKjj-86">
          <mxGeometry y="130" width="140" height="26" as="geometry" />
        </mxCell>
        <mxCell id="gJkIxgqZncVY2Rm4iKjj-93" value="updated_at" style="text;strokeColor=none;fillColor=none;align=left;verticalAlign=top;spacingLeft=4;spacingRight=4;overflow=hidden;rotatable=0;points=[[0,0.5],[1,0.5]];portConstraint=eastwest;fontFamily=Comic Sans MS;" vertex="1" parent="gJkIxgqZncVY2Rm4iKjj-86">
          <mxGeometry y="156" width="140" height="26" as="geometry" />
        </mxCell>
        <mxCell id="gJkIxgqZncVY2Rm4iKjj-94" value="is_active" style="text;strokeColor=none;fillColor=none;align=left;verticalAlign=top;spacingLeft=4;spacingRight=4;overflow=hidden;rotatable=0;points=[[0,0.5],[1,0.5]];portConstraint=eastwest;fontFamily=Comic Sans MS;" vertex="1" parent="gJkIxgqZncVY2Rm4iKjj-86">
          <mxGeometry y="182" width="140" height="26" as="geometry" />
        </mxCell>
        <mxCell id="gJkIxgqZncVY2Rm4iKjj-98" value="feed type" style="swimlane;fontStyle=0;childLayout=stackLayout;horizontal=1;startSize=26;fillColor=none;horizontalStack=0;resizeParent=1;resizeParentMax=0;resizeLast=0;collapsible=1;marginBottom=0;fontFamily=Comic Sans MS;" vertex="1" parent="1">
          <mxGeometry x="-210" y="680" width="140" height="78" as="geometry" />
        </mxCell>
        <mxCell id="gJkIxgqZncVY2Rm4iKjj-99" value="name" style="text;strokeColor=none;fillColor=none;align=left;verticalAlign=top;spacingLeft=4;spacingRight=4;overflow=hidden;rotatable=0;points=[[0,0.5],[1,0.5]];portConstraint=eastwest;fontFamily=Comic Sans MS;" vertex="1" parent="gJkIxgqZncVY2Rm4iKjj-98">
          <mxGeometry y="26" width="140" height="26" as="geometry" />
        </mxCell>
        <mxCell id="gJkIxgqZncVY2Rm4iKjj-100" value="desc" style="text;strokeColor=none;fillColor=none;align=left;verticalAlign=top;spacingLeft=4;spacingRight=4;overflow=hidden;rotatable=0;points=[[0,0.5],[1,0.5]];portConstraint=eastwest;fontFamily=Comic Sans MS;" vertex="1" parent="gJkIxgqZncVY2Rm4iKjj-98">
          <mxGeometry y="52" width="140" height="26" as="geometry" />
        </mxCell>
        <mxCell id="gJkIxgqZncVY2Rm4iKjj-107" style="edgeStyle=orthogonalEdgeStyle;rounded=0;orthogonalLoop=1;jettySize=auto;html=1;entryX=1;entryY=0.5;entryDx=0;entryDy=0;fontFamily=Comic Sans MS;" edge="1" parent="1" source="gJkIxgqZncVY2Rm4iKjj-61" target="gJkIxgqZncVY2Rm4iKjj-83">
          <mxGeometry relative="1" as="geometry" />
        </mxCell>
        <mxCell id="gJkIxgqZncVY2Rm4iKjj-112" style="edgeStyle=orthogonalEdgeStyle;rounded=0;orthogonalLoop=1;jettySize=auto;html=1;entryX=0;entryY=0.5;entryDx=0;entryDy=0;fontFamily=Comic Sans MS;" edge="1" parent="1" source="gJkIxgqZncVY2Rm4iKjj-91" target="gJkIxgqZncVY2Rm4iKjj-99">
          <mxGeometry relative="1" as="geometry">
            <Array as="points">
              <mxPoint x="-390" y="957" />
              <mxPoint x="-390" y="750" />
              <mxPoint x="-230" y="750" />
              <mxPoint x="-230" y="719" />
            </Array>
          </mxGeometry>
        </mxCell>
      </root>
    </mxGraphModel>
  </diagram>
</mxfile>
